<svg xmlns="http://www.w3.org/2000/svg" viewBox="0 0 1000 520" width="100%" height="100%">
  <title>xyz-prompt system architecture</title>
  <defs>
    <linearGradient id="bg-grad" x1="0%" y1="0%" x2="0%" y2="100%">
      <stop offset="0%" stop-color="#0e1017" />
      <stop offset="100%" stop-color="#181b28" />
    </linearGradient>
    <linearGradient id="card-grad" x1="0%" y1="0%" x2="100%" y2="100%">
      <stop offset="0%" stop-color="#2a3045" />
      <stop offset="100%" stop-color="#1d2230" />
    </linearGradient>
    <filter id="glow" x="-20%" y="-20%" width="140%" height="140%">
      <feGaussianBlur stdDeviation="6" result="blur" />
      <feMerge><feMergeNode in="blur" /><feMergeNode in="SourceGraphic" /></feMerge>
    </filter>
    <marker id="arrow-pink" markerWidth="8" markerHeight="8" refX="6" refY="3" orient="auto">
      <path d="M0,0 L6,3 L0,6 Z" fill="#ffb1de" />
    </marker>
    <marker id="arrow-cyan" markerWidth="8" markerHeight="8" refX="6" refY="3" orient="auto">
      <path d="M0,0 L6,3 L0,6 Z" fill="#a6e7ff" />
    </marker>
    <marker id="arrow-lime" markerWidth="8" markerHeight="8" refX="6" refY="3" orient="auto">
      <path d="M0,0 L6,3 L0,6 Z" fill="#bfffa6" />
    </marker>
  </defs>
  <rect width="100%" height="100%" fill="url(#bg-grad)" rx="15" />
  <g stroke="#ffffff" stroke-opacity="0.03" stroke-width="1">
    <line x1="0" y1="80" x2="1000" y2="80" /><line x1="0" y1="160" x2="1000" y2="160" />
    <line x1="200" y1="0" x2="200" y2="520" /><line x1="500" y1="0" x2="500" y2="520" />
    <line x1="800" y1="0" x2="800" y2="520" />
  </g>
  <text x="500" y="38" font-family="'Segoe UI', Roboto, sans-serif" font-size="17" font-weight="bold" fill="#a6e7ff" text-anchor="middle" letter-spacing="2" filter="url(#glow)">XYZ-PROMPT - SYSTEM ARCHITECTURE</text>
  <text x="500" y="38" font-family="'Segoe UI', Roboto, sans-serif" font-size="17" font-weight="bold" fill="#ffffff" text-anchor="middle" letter-spacing="2">XYZ-PROMPT - SYSTEM ARCHITECTURE</text>

  <g transform="translate(20, 65)">
    <rect width="210" height="200" rx="10" fill="url(#card-grad)" stroke="#ffb1de" stroke-width="2" />
    <rect width="210" height="42" rx="10" fill="#202538" />
    <text x="16" y="28" font-family="'Segoe UI', Roboto, sans-serif" font-size="13" font-weight="bold" fill="#ffb1de">INGESTION</text>
    <rect x="14" y="58" width="182" height="32" rx="5" fill="#151924" stroke="#ffb1de" stroke-width="0.5" />
    <text x="28" y="78" font-family="'Segoe UI', Roboto, sans-serif" font-size="11" fill="#ffffff" opacity="0.9">File Upload (.md .txt .json)</text>
    <rect x="14" y="98" width="182" height="32" rx="5" fill="#151924" stroke="#a6e7ff" stroke-width="0.5" />
    <text x="28" y="118" font-family="'Segoe UI', Roboto, sans-serif" font-size="11" fill="#ffffff" opacity="0.9">Clipboard Paste</text>
    <rect x="14" y="138" width="182" height="32" rx="5" fill="#151924" stroke="#bfffa6" stroke-width="0.5" />
    <text x="28" y="158" font-family="'Segoe UI', Roboto, sans-serif" font-size="11" fill="#ffffff" opacity="0.9">.docx / .pdf Parser</text>
  </g>

  <path d="M240 165 L275 165" fill="none" stroke="#ffb1de" stroke-width="2" marker-end="url(#arrow-pink)" filter="url(#glow)" />

  <g transform="translate(285, 55)">
    <rect width="200" height="220" rx="10" fill="url(#card-grad)" stroke="#a6e7ff" stroke-width="2" filter="url(#glow)" />
    <rect width="200" height="42" rx="10" fill="#202538" />
    <text x="16" y="28" font-family="'Segoe UI', Roboto, sans-serif" font-size="13" font-weight="bold" fill="#a6e7ff">ZUSTAND</text>
    <rect x="14" y="58" width="172" height="30" rx="5" fill="#151924" stroke="#ffffff" stroke-width="0.5" />
    <text x="28" y="77" font-family="'Segoe UI', Roboto, sans-serif" font-size="11" fill="#ffffff" opacity="0.9">Mode: Pages / Versus</text>
    <rect x="14" y="96" width="172" height="30" rx="5" fill="#151924" stroke="#ffffff" stroke-width="0.5" />
    <text x="28" y="115" font-family="'Segoe UI', Roboto, sans-serif" font-size="11" fill="#ffffff" opacity="0.9">i18n ES / EN Store</text>
    <rect x="14" y="134" width="172" height="30" rx="5" fill="#151924" stroke="#ffffff" stroke-width="0.5" />
    <text x="28" y="153" font-family="'Segoe UI', Roboto, sans-serif" font-size="11" fill="#ffffff" opacity="0.9">Chat + Vote State</text>
    <rect x="14" y="172" width="172" height="30" rx="5" fill="#282d3f" />
    <text x="100" y="191" font-family="'Segoe UI', Roboto, sans-serif" font-size="9" fill="#ffffff" text-anchor="middle" opacity="0.6">src/store/useStore.ts</text>
  </g>

  <path d="M495 165 L530 165" fill="none" stroke="#a6e7ff" stroke-width="2" marker-end="url(#arrow-cyan)" filter="url(#glow)" />

  <g transform="translate(540, 55)">
    <rect width="210" height="220" rx="10" fill="url(#card-grad)" stroke="#a3e635" stroke-width="2" />
    <rect width="210" height="42" rx="10" fill="#202538" />
    <text x="16" y="28" font-family="'Segoe UI', Roboto, sans-serif" font-size="13" font-weight="bold" fill="#a3e635">DEXIE INDEXEDDB</text>
    <rect x="14" y="58" width="182" height="28" rx="5" fill="#151924" stroke="#a3e635" stroke-width="0.5" />
    <text x="28" y="76" font-family="'Segoe UI', Roboto, sans-serif" font-size="11" fill="#ffffff" opacity="0.9">prompts / votes</text>
    <rect x="14" y="94" width="182" height="28" rx="5" fill="#151924" stroke="#a3e635" stroke-width="0.5" />
    <text x="28" y="112" font-family="'Segoe UI', Roboto, sans-serif" font-size="11" fill="#ffffff" opacity="0.9">feedbacks</text>
    <rect x="14" y="130" width="182" height="28" rx="5" fill="#151924" stroke="#a855f7" stroke-width="0.5" />
    <text x="28" y="148" font-family="'Segoe UI', Roboto, sans-serif" font-size="11" fill="#ffffff" opacity="0.9">providers + aiSettings</text>
    <rect x="14" y="166" width="182" height="28" rx="5" fill="#282d3f" />
    <text x="105" y="184" font-family="'Segoe UI', Roboto, sans-serif" font-size="9" fill="#ffffff" text-anchor="middle" opacity="0.6">src/db/schema.ts</text>
  </g>

  <path d="M760 165 L795 165" fill="none" stroke="#bfffa6" stroke-width="2" marker-end="url(#arrow-lime)" filter="url(#glow)" />

  <g transform="translate(805, 55)">
    <rect width="175" height="220" rx="10" fill="url(#card-grad)" stroke="#a855f7" stroke-width="2" />
    <rect width="175" height="42" rx="10" fill="#202538" />
    <text x="16" y="28" font-family="'Segoe UI', Roboto, sans-serif" font-size="13" font-weight="bold" fill="#a855f7">AI LAYER</text>
    <rect x="14" y="58" width="147" height="28" rx="5" fill="#151924" stroke="#a855f7" stroke-width="0.5" />
    <text x="28" y="76" font-family="'Segoe UI', Roboto, sans-serif" font-size="10" fill="#ffffff" opacity="0.9">Mock Responses</text>
    <rect x="14" y="94" width="147" height="28" rx="5" fill="#151924" stroke="#a6e7ff" stroke-width="0.5" />
    <text x="28" y="112" font-family="'Segoe UI', Roboto, sans-serif" font-size="10" fill="#ffffff" opacity="0.9">OpenAI-Compatible</text>
    <rect x="14" y="130" width="147" height="28" rx="5" fill="#151924" stroke="#bfffa6" stroke-width="0.5" />
    <text x="28" y="148" font-family="'Segoe UI', Roboto, sans-serif" font-size="10" fill="#ffffff" opacity="0.9">Ollama / LM Studio</text>
    <rect x="14" y="166" width="147" height="28" rx="5" fill="#282d3f" />
    <text x="87" y="184" font-family="'Segoe UI', Roboto, sans-serif" font-size="9" fill="#ffffff" text-anchor="middle" opacity="0.6">aiService.ts</text>
  </g>

  <path d="M500 285 L500 310" fill="none" stroke="#bfffa6" stroke-width="1.5" stroke-dasharray="6 4" opacity="0.6" />

  <g transform="translate(120, 320)">
    <rect width="760" height="170" rx="10" fill="url(#card-grad)" stroke="#a6e7ff" stroke-width="1.5" />
    <text x="380" y="32" font-family="'Segoe UI', Roboto, sans-serif" font-size="14" font-weight="bold" fill="#a6e7ff" text-anchor="middle" letter-spacing="1">REACT UI  CHATSHELL + VIEWS</text>
    <g transform="translate(30, 55)">
      <rect width="210" height="90" rx="8" fill="#151924" stroke="#a3e635" stroke-width="1" />
      <text x="105" y="28" font-family="'Segoe UI', Roboto, sans-serif" font-size="12" font-weight="bold" fill="#a3e635" text-anchor="middle">PAGES</text>
      <text x="105" y="50" font-family="'Segoe UI', Roboto, sans-serif" font-size="10" fill="#ffffff" text-anchor="middle" opacity="0.7">Paginated prompt review</text>
      <text x="105" y="68" font-family="'Segoe UI', Roboto, sans-serif" font-size="10" fill="#ffffff" text-anchor="middle" opacity="0.7">Vote + feedback + chat test</text>
    </g>
    <g transform="translate(275, 55)">
      <rect width="210" height="90" rx="8" fill="#151924" stroke="#a855f7" stroke-width="1" />
      <text x="105" y="28" font-family="'Segoe UI', Roboto, sans-serif" font-size="12" font-weight="bold" fill="#a855f7" text-anchor="middle">VERSUS A/B</text>
      <text x="105" y="50" font-family="'Segoe UI', Roboto, sans-serif" font-size="10" fill="#ffffff" text-anchor="middle" opacity="0.7">Random pair comparison</text>
      <text x="105" y="68" font-family="'Segoe UI', Roboto, sans-serif" font-size="10" fill="#ffffff" text-anchor="middle" opacity="0.7">Side-by-side outputs</text>
    </g>
    <g transform="translate(520, 55)">
      <rect width="210" height="90" rx="8" fill="#151924" stroke="#ffb1de" stroke-width="1" />
      <text x="105" y="28" font-family="'Segoe UI', Roboto, sans-serif" font-size="12" font-weight="bold" fill="#ffb1de" text-anchor="middle">METRICS GRID</text>
      <text x="105" y="50" font-family="'Segoe UI', Roboto, sans-serif" font-size="10" fill="#ffffff" text-anchor="middle" opacity="0.7">3x3 hover preview</text>
      <text x="105" y="68" font-family="'Segoe UI', Roboto, sans-serif" font-size="10" fill="#ffffff" text-anchor="middle" opacity="0.7">AI-assisted feedback</text>
    </g>
  </g>
  <text x="500" y="508" font-family="'Courier New', monospace" font-size="10" fill="#bfffa6" text-anchor="middle" opacity="0.5">xyz-rainbow - rainbowtechnology.xyz</text>
</svg>
