<svg xmlns="http://www.w3.org/2000/svg" viewBox="0 0 1200 300" width="100%" height="100%">
  <title>xyz-prompt  Prompt Rating SPA</title>
  <defs>
    <linearGradient id="cyber-grad" x1="0%" y1="0%" x2="100%" y2="100%">
      <stop offset="0%" stop-color="#ffb1de" />
      <stop offset="50%" stop-color="#a6e7ff" />
      <stop offset="100%" stop-color="#bfffa6" />
    </linearGradient>
    <linearGradient id="bg-grad" x1="0%" y1="0%" x2="0%" y2="100%">
      <stop offset="0%" stop-color="#0a0b10" />
      <stop offset="100%" stop-color="#141622" />
    </linearGradient>
    <linearGradient id="rgb-border" x1="0%" y1="0%" x2="100%" y2="100%">
      <stop offset="0%" stop-color="#a3e635" />
      <stop offset="50%" stop-color="#a6e7ff" />
      <stop offset="100%" stop-color="#a855f7" />
    </linearGradient>
    <filter id="glow" x="-20%" y="-20%" width="140%" height="140%">
      <feGaussianBlur stdDeviation="8" result="blur" />
      <feMerge><feMergeNode in="blur" /><feMergeNode in="SourceGraphic" /></feMerge>
    </filter>
  </defs>
  <rect width="100%" height="100%" fill="url(#bg-grad)" rx="15" />
  <g stroke="#ffffff" stroke-opacity="0.04" stroke-width="1">
    <line x1="0" y1="50" x2="1200" y2="50" /><line x1="0" y1="100" x2="1200" y2="100" />
    <line x1="0" y1="150" x2="1200" y2="150" /><line x1="0" y1="200" x2="1200" y2="200" />
    <line x1="100" y1="0" x2="100" y2="300" /><line x1="300" y1="0" x2="300" y2="300" />
    <line x1="500" y1="0" x2="500" y2="300" /><line x1="700" y1="0" x2="700" y2="300" />
    <line x1="900" y1="0" x2="900" y2="300" /><line x1="1100" y1="0" x2="1100" y2="300" />
  </g>
  <circle cx="80" cy="100" r="6" fill="#a3e635" opacity="0.6" filter="url(#glow)" />
  <circle cx="140" cy="160" r="4" fill="#a6e7ff" opacity="0.5" filter="url(#glow)" />
  <circle cx="200" cy="120" r="5" fill="#a855f7" opacity="0.5" filter="url(#glow)" />
  <line x1="80" y1="100" x2="140" y2="160" stroke="#a3e635" stroke-width="1" opacity="0.25" />
  <line x1="140" y1="160" x2="200" y2="120" stroke="#a855f7" stroke-width="1" opacity="0.25" />
  <circle cx="1120" cy="100" r="6" fill="#bfffa6" opacity="0.6" filter="url(#glow)" />
  <circle cx="1060" cy="160" r="4" fill="#ffb1de" opacity="0.5" filter="url(#glow)" />
  <circle cx="1000" cy="120" r="5" fill="#a6e7ff" opacity="0.5" filter="url(#glow)" />
  <rect x="980" y="55" width="130" height="90" rx="12" fill="#151924" stroke="url(#rgb-border)" stroke-width="1.5" opacity="0.9" />
  <path d="M1005 85 H1085 M1005 105 H1065 M1005 125 H1045" stroke="#a3e635" stroke-width="2.5" stroke-linecap="round" opacity="0.85" />
  <circle cx="1095" cy="125" r="7" fill="#a855f7" filter="url(#glow)" />
  <g transform="translate(600, 125)" text-anchor="middle">
    <text x="0" y="0" font-family="'Segoe UI', Roboto, sans-serif" font-size="78" font-weight="900" fill="url(#cyber-grad)" filter="url(#glow)" letter-spacing="6">XYZ-PROMPT</text>
    <text x="0" y="0" font-family="'Segoe UI', Roboto, sans-serif" font-size="78" font-weight="900" fill="#ffffff" letter-spacing="6">XYZ-PROMPT</text>
    <text x="0" y="48" font-family="'Segoe UI', Roboto, sans-serif" font-size="18" font-weight="600" fill="#a6e7ff" letter-spacing="3" opacity="0.9">RATE, COMPARE, AND ANALYZE SYSTEM PROMPTS</text>
    <text x="0" y="78" font-family="'Segoe UI', Roboto, sans-serif" font-size="11" font-weight="400" fill="#ffffff" letter-spacing="2" opacity="0.45">PAGES - VERSUS A/B - METRICS GRID - INDEXEDDB - i18n ES/EN</text>
  </g>
  <text x="600" y="285" font-family="'Courier New', monospace" font-size="10" fill="#bfffa6" text-anchor="middle" opacity="0.5">xyz-rainbow - rainbowtechnology.xyz</text>
</svg>
